Coordinates
version=1
nRows=27
nColumns=38
inDegrees=no

Units are S.I. units (second, meters, Newtons, ...)
If the header above contains a line with 'inDegrees', this indicates whether rotational values are in degrees (yes) or radians (no).

endheader
time	pelvis_tilt	pelvis_list	pelvis_rotation	pelvis_tx	pelvis_ty	pelvis_tz	hip_flexion_r	hip_adduction_r	hip_rotation_r	knee_angle_r	ankle_angle_r	subtalar_angle_r	mtp_angle_r	hip_flexion_l	hip_adduction_l	hip_rotation_l	knee_angle_l	ankle_angle_l	subtalar_angle_l	mtp_angle_l	lumbar_extension	lumbar_bending	lumbar_rotation	arm_flex_r	arm_add_r	arm_rot_r	elbow_flex_r	pro_sup_r	wrist_flex_r	wrist_dev_r	arm_flex_l	arm_add_l	arm_rot_l	elbow_flex_l	pro_sup_l	wrist_flex_l	wrist_dev_l
9.03	-3.13591	1.13247	-1.78908	0.791171	1.94987	0.979596	-0.509003	-0.107299	-0.0456188	0.0768145	-0.0876683	0	0	-0.523599	0.0995763	-0.414124	0.180893	-0.0111034	0	0	-0.405621	-0.13763	0.248543	0.513234	-0.293829	0.33608	1.26002	1.5708	0	0	0.483339	-0.224836	0.144872	1.36098	0.802441	0	0
9.04	-3.14065	1.12442	-1.78946	0.790356	1.94654	0.980196	-0.510885	-0.109704	-0.0514043	0.0771731	-0.0893018	0	0	-0.523599	0.101221	-0.419847	0.186583	-0.00751838	0	0	-0.42149	-0.137931	0.252356	0.528666	-0.295608	0.336753	1.25294	1.5708	0	0	0.492257	-0.220318	0.148668	1.35676	0.806855	0	0
9.05	3.13872	1.1244	-1.78401	0.790034	1.94524	0.980412	-0.508493	-0.10753	-0.0488896	0.0808323	-0.0891663	0	0	-0.523599	0.0993797	-0.413094	0.18471	-0.0157461	0	0	-0.419148	-0.136377	0.251923	0.531294	-0.294268	0.338021	1.24052	1.5708	0	0	0.495686	-0.216485	0.150852	1.35043	0.811888	0	0
9.06	3.13799	1.12209	-1.7828	0.78939	1.94431	0.980639	-0.507428	-0.107681	-0.0481188	0.0840376	-0.0908162	0	0	-0.523599	0.0988934	-0.410738	0.186209	-0.0171191	0	0	-0.419666	-0.137161	0.251048	0.536609	-0.292107	0.34047	1.22708	1.5708	0	0	0.499453	-0.213658	0.152952	1.34432	0.817608	0	0
9.07	3.1381	1.11985	-1.78284	0.789094	1.94275	0.980957	-0.506102	-0.108541	-0.0464713	0.0874864	-0.0928318	0	0	-0.523599	0.0992165	-0.408376	0.187546	-0.0187453	0	0	-0.420012	-0.138644	0.250043	0.542596	-0.289625	0.343278	1.21348	1.5708	0	0	0.503126	-0.211294	0.155236	1.33815	0.823446	0	0
9.08	-3.14147	1.12116	-1.78247	0.788563	1.94296	0.98103	-0.502894	-0.10811	-0.0425619	0.0931451	-0.0936071	0	0	-0.523599	0.09873	-0.402543	0.185829	-0.0211306	0	0	-0.41075	-0.140728	0.246013	0.539265	-0.284452	0.345495	1.19816	1.5708	0	0	0.502916	-0.210201	0.156598	1.33009	0.828896	0	0
9.09	3.13791	1.11504	-1.78247	0.788258	1.93991	0.981537	-0.503664	-0.109727	-0.0452375	0.0939333	-0.0957705	0	0	-0.523599	0.0999246	-0.403691	0.189924	-0.0225879	0	0	-0.421641	-0.141271	0.247193	0.555796	-0.284335	0.349263	1.18838	1.5708	0	0	0.510085	-0.207549	0.159473	1.32579	0.833483	0	0
9.1	3.1371	1.11159	-1.78244	0.787662	1.93811	0.981889	-0.502686	-0.110832	-0.0454182	0.0979457	-0.096176	0	0	-0.523599	0.100405	-0.403187	0.192793	-0.0221862	0	0	-0.424381	-0.142451	0.246077	0.563751	-0.281897	0.35273	1.17639	1.5708	0	0	0.514087	-0.205277	0.160685	1.31899	0.837919	0	0
9.11	3.13677	1.10905	-1.78268	0.786923	1.93639	0.982209	-0.500634	-0.111887	-0.0441382	0.102792	-0.0961604	0	0	-0.523599	0.100964	-0.401396	0.194235	-0.0238359	0	0	-0.425255	-0.143772	0.245038	0.570278	-0.279487	0.356721	1.16393	1.5708	0	0	0.517812	-0.202852	0.161303	1.31162	0.841337	0	0
9.12	3.13584	1.10601	-1.78308	0.786495	1.93464	0.982498	-0.49858	-0.113135	-0.0430279	0.107353	-0.0960928	0	0	-0.523599	0.101921	-0.399968	0.195771	-0.0254822	0	0	-0.427557	-0.145022	0.244592	0.578025	-0.277747	0.361649	1.15164	1.5708	0	0	0.522158	-0.200151	0.161541	1.30439	0.84407	0	0
9.13	3.13522	1.10333	-1.78338	0.786276	1.93321	0.982753	-0.496078	-0.114252	-0.0415711	0.112607	-0.0964977	0	0	-0.523599	0.102799	-0.398165	0.197063	-0.0272489	0	0	-0.428727	-0.146434	0.24392	0.584145	-0.275767	0.366477	1.13879	1.5708	0	0	0.526371	-0.197416	0.161366	1.29692	0.846498	0	0
9.14	3.13386	1.09945	-1.78444	0.785598	1.93104	0.983125	-0.493664	-0.116043	-0.0387645	0.118886	-0.0958441	0	0	-0.523599	0.103934	-0.398044	0.200062	-0.0277993	0	0	-0.432495	-0.14804	0.244497	0.591838	-0.27479	0.37182	1.1264	1.5708	0	0	0.532116	-0.194567	0.161964	1.28972	0.850805	0	0
9.15	3.13285	1.09608	-1.78561	0.784991	1.92897	0.983458	-0.490913	-0.11787	-0.0365396	0.124604	-0.0967517	0	0	-0.523599	0.105483	-0.396652	0.201821	-0.0296893	0	0	-0.435548	-0.149596	0.24505	0.598488	-0.274059	0.376852	1.11448	1.5708	0	0	0.537904	-0.191886	0.163068	1.28251	0.85565	0	0
9.16	3.13185	1.09264	-1.78713	0.784273	1.92681	0.983783	-0.487995	-0.119806	-0.0338458	0.130386	-0.0974614	0	0	-0.523599	0.107153	-0.395655	0.203579	-0.031592	0	0	-0.438759	-0.15131	0.246107	0.604604	-0.273478	0.380969	1.10327	1.5708	0	0	0.543837	-0.189005	0.165715	1.27495	0.860174	0	0
9.17	3.13083	1.08928	-1.78883	0.783797	1.92465	0.984094	-0.48471	-0.12187	-0.0305805	0.136375	-0.0982285	0	0	-0.523599	0.109003	-0.39496	0.205066	-0.0337389	0	0	-0.441797	-0.153151	0.247564	0.610199	-0.273025	0.384556	1.09243	1.5708	0	0	0.54978	-0.185766	0.168326	1.26722	0.864599	0	0
9.18	3.13015	1.0859	-1.79079	0.782986	1.92254	0.9844	-0.481245	-0.12391	-0.0277451	0.142467	-0.0990571	0	0	-0.523599	0.110872	-0.394312	0.206331	-0.036197	0	0	-0.444832	-0.155206	0.249083	0.615576	-0.272611	0.388143	1.08194	1.5708	0	0	0.555717	-0.182406	0.170622	1.25948	0.869294	0	0
9.19	3.12882	1.08256	-1.79232	0.782415	1.91992	0.984748	-0.477501	-0.125824	-0.0246973	0.149055	-0.0996184	0	0	-0.523599	0.112583	-0.394162	0.207722	-0.0386148	0	0	-0.448098	-0.157128	0.250772	0.620993	-0.272254	0.391828	1.07184	1.5708	0	0	0.561495	-0.179063	0.172673	1.25197	0.874219	0	0
9.2	3.12709	1.07902	-1.79373	0.782014	1.91784	0.985036	-0.473411	-0.12775	-0.0210515	0.155827	-0.100636	0	0	-0.523599	0.114257	-0.394368	0.209082	-0.0410585	0	0	-0.451762	-0.159032	0.252481	0.626513	-0.271694	0.395086	1.06192	1.5708	0	0	0.567003	-0.175735	0.174467	1.24485	0.879173	0	0
9.21	3.12517	1.07561	-1.79501	0.780962	1.91535	0.985371	-0.469138	-0.129393	-0.0172739	0.162749	-0.101844	0	0	-0.523599	0.115701	-0.39471	0.210224	-0.0435786	0	0	-0.455641	-0.160868	0.254098	0.632219	-0.271007	0.397932	1.05215	1.5708	0	0	0.572175	-0.17253	0.175855	1.23834	0.883921	0	0
9.22	3.12256	1.07244	-1.79523	0.780259	1.91246	0.985753	-0.4649	-0.130521	-0.0136874	0.169473	-0.103652	0	0	-0.523599	0.116719	-0.394881	0.211148	-0.046202	0	0	-0.459595	-0.162314	0.255063	0.638219	-0.26982	0.400571	1.04177	1.5708	0	0	0.576735	-0.169517	0.176314	1.23261	0.888208	0	0
9.23	3.11931	1.06918	-1.79452	0.77977	1.9098	0.986096	-0.460438	-0.131299	-0.010156	0.176382	-0.105716	0	0	-0.523599	0.117324	-0.394967	0.212064	-0.0486672	0	0	-0.464071	-0.163397	0.255454	0.644756	-0.268501	0.403468	1.03132	1.5708	0	0	0.580975	-0.166556	0.175949	1.22752	0.891931	0	0
9.24	3.11568	1.06576	-1.79317	0.779085	1.90738	0.986389	-0.455728	-0.131698	-0.00705111	0.183847	-0.107588	0	0	-0.523599	0.117439	-0.394991	0.213112	-0.0508152	0	0	-0.469059	-0.164246	0.255633	0.651339	-0.267298	0.405928	1.02184	1.5708	0	0	0.585207	-0.163645	0.175183	1.22298	0.895138	0	0
9.25	3.11161	1.06226	-1.79128	0.77811	1.90468	0.986737	-0.450509	-0.131827	-0.00382876	0.19246	-0.109304	0	0	-0.523599	0.117094	-0.395076	0.214206	-0.0532476	0	0	-0.474443	-0.164912	0.25555	0.658248	-0.265928	0.408392	1.01221	1.5708	0	0	0.589449	-0.160713	0.173632	1.21853	0.898139	0	0
9.26	3.10737	1.05877	-1.78915	0.777182	1.90158	0.987107	-0.445459	-0.131823	-0.000942125	0.200988	-0.110849	0	0	-0.523599	0.116605	-0.39522	0.215437	-0.0555338	0	0	-0.480145	-0.16544	0.255296	0.665383	-0.264821	0.411459	1.00318	1.5708	0	0	0.593616	-0.157954	0.171756	1.21469	0.901082	0	0
9.27	3.09936	1.04811	-1.78932	0.775743	1.89576	0.988176	-0.448274	-0.134824	-0.000157907	0.19826	-0.112482	0	0	-0.523599	0.120225	-0.396542	0.218231	-0.059017	0	0	-0.505092	-0.164385	0.25878	0.682968	-0.266618	0.414992	0.996244	1.5708	0	0	0.59847	-0.154009	0.17041	1.21347	0.903842	0	0
9.28	3.09834	1.052	-1.78424	0.775719	1.89568	0.987747	-0.435245	-0.131475	0.00493013	0.217557	-0.113838	0	0	-0.523599	0.115425	-0.395177	0.217269	-0.0601949	0	0	-0.492194	-0.166002	0.254141	0.679481	-0.262634	0.416721	0.987036	1.5708	0	0	0.60059	-0.153389	0.167571	1.21076	0.90656	0	0
9.29	3.09058	1.04157	-1.78461	0.774268	1.8902	0.988767	-0.437638	-0.134441	0.00606298	0.215541	-0.11465	0	0	-0.523599	0.118878	-0.396577	0.219875	-0.0640539	0	0	-0.516569	-0.164939	0.257383	0.696274	-0.26426	0.420142	0.981016	1.5708	0	0	0.604332	-0.150138	0.166269	1.21106	0.909404	0	0
